<mxfile host="app.diagrams.net" modified="2023-06-14T09:44:51.462Z" agent="Mozilla/5.0 (Macintosh; Intel Mac OS X 10_15_7) AppleWebKit/537.36 (KHTML, like Gecko) Chrome/109.0.0.0 Safari/537.36" etag="Emo_sZQtquSnXW12v-iq" version="21.2.9" type="github">
  <diagram id="rYdwiMb5jvszhZctyrXV" name="第 1 页">
    <mxGraphModel dx="1068" dy="874" grid="0" gridSize="10" guides="1" tooltips="1" connect="1" arrows="1" fold="1" page="0" pageScale="1" pageWidth="1920" pageHeight="1200" math="0" shadow="0">
      <root>
        <mxCell id="0" />
        <mxCell id="1" parent="0" />
        <mxCell id="YQscOVflWYW1QB9K6YFz-36" value="" style="rounded=1;whiteSpace=wrap;html=1;" parent="1" vertex="1">
          <mxGeometry x="879.5" y="819" width="172" height="291" as="geometry" />
        </mxCell>
        <mxCell id="YQscOVflWYW1QB9K6YFz-4" value="" style="rounded=1;whiteSpace=wrap;html=1;" parent="1" vertex="1">
          <mxGeometry x="484" y="530" width="432" height="174" as="geometry" />
        </mxCell>
        <mxCell id="YQscOVflWYW1QB9K6YFz-1" value="sentinel-0" style="ellipse;whiteSpace=wrap;html=1;aspect=fixed;fillColor=#008a00;fontColor=#ffffff;strokeColor=#005700;" parent="1" vertex="1">
          <mxGeometry x="517.5" y="567" width="80" height="80" as="geometry" />
        </mxCell>
        <mxCell id="YQscOVflWYW1QB9K6YFz-2" value="sentinel-2" style="ellipse;whiteSpace=wrap;html=1;aspect=fixed;fillColor=#008a00;fontColor=#ffffff;strokeColor=#005700;" parent="1" vertex="1">
          <mxGeometry x="799.5" y="567" width="80" height="80" as="geometry" />
        </mxCell>
        <mxCell id="YQscOVflWYW1QB9K6YFz-3" value="sentinel-1" style="ellipse;whiteSpace=wrap;html=1;aspect=fixed;fillColor=#008a00;fontColor=#ffffff;strokeColor=#005700;" parent="1" vertex="1">
          <mxGeometry x="654.5" y="567" width="80" height="80" as="geometry" />
        </mxCell>
        <mxCell id="YQscOVflWYW1QB9K6YFz-5" value="sentinel集群" style="text;html=1;strokeColor=none;fillColor=none;align=center;verticalAlign=middle;whiteSpace=wrap;rounded=0;" parent="1" vertex="1">
          <mxGeometry x="664" y="537" width="72" height="30" as="geometry" />
        </mxCell>
        <mxCell id="YQscOVflWYW1QB9K6YFz-37" value="&lt;p style=&quot;line-height: 150%;&quot;&gt;master&lt;br&gt;IP:192.168.0.2&lt;/p&gt;" style="ellipse;whiteSpace=wrap;html=1;aspect=fixed;fillColor=#008a00;fontColor=#ffffff;strokeColor=#005700;" parent="1" vertex="1">
          <mxGeometry x="913.5" y="871" width="95" height="95" as="geometry" />
        </mxCell>
        <mxCell id="YQscOVflWYW1QB9K6YFz-39" value="&lt;p style=&quot;line-height: 150%;&quot;&gt;slave&lt;br&gt;IP:192.168.0.3&lt;/p&gt;" style="ellipse;whiteSpace=wrap;html=1;aspect=fixed;fillColor=#d5e8d4;strokeColor=#82b366;" parent="1" vertex="1">
          <mxGeometry x="913.5" y="994" width="94" height="94" as="geometry" />
        </mxCell>
        <mxCell id="B2N0Zq3Kd3Tc7z_olNVD-4" style="edgeStyle=orthogonalEdgeStyle;rounded=0;orthogonalLoop=1;jettySize=auto;html=1;exitX=0.106;exitY=1.019;exitDx=0;exitDy=0;exitPerimeter=0;entryX=0.5;entryY=0;entryDx=0;entryDy=0;dashed=1;" parent="1" source="YQscOVflWYW1QB9K6YFz-41" target="YQscOVflWYW1QB9K6YFz-4" edge="1">
          <mxGeometry relative="1" as="geometry" />
        </mxCell>
        <mxCell id="B2N0Zq3Kd3Tc7z_olNVD-13" style="edgeStyle=orthogonalEdgeStyle;rounded=0;orthogonalLoop=1;jettySize=auto;html=1;exitX=0;exitY=0.5;exitDx=0;exitDy=0;dashed=1;" parent="1" source="YQscOVflWYW1QB9K6YFz-41" target="YQscOVflWYW1QB9K6YFz-36" edge="1">
          <mxGeometry relative="1" as="geometry">
            <mxPoint x="372.625" y="961.375" as="targetPoint" />
            <Array as="points">
              <mxPoint x="422" y="374" />
              <mxPoint x="422" y="961" />
            </Array>
          </mxGeometry>
        </mxCell>
        <mxCell id="B2N0Zq3Kd3Tc7z_olNVD-15" style="edgeStyle=orthogonalEdgeStyle;rounded=0;orthogonalLoop=1;jettySize=auto;html=1;exitX=1;exitY=0.5;exitDx=0;exitDy=0;entryX=0;entryY=0.5;entryDx=0;entryDy=0;dashed=1;" parent="1" source="YQscOVflWYW1QB9K6YFz-41" target="B2N0Zq3Kd3Tc7z_olNVD-7" edge="1">
          <mxGeometry relative="1" as="geometry" />
        </mxCell>
        <mxCell id="B2N0Zq3Kd3Tc7z_olNVD-17" style="edgeStyle=orthogonalEdgeStyle;rounded=0;orthogonalLoop=1;jettySize=auto;html=1;exitX=0.75;exitY=1;exitDx=0;exitDy=0;entryX=0.5;entryY=0;entryDx=0;entryDy=0;dashed=1;" parent="1" source="YQscOVflWYW1QB9K6YFz-41" target="B2N0Zq3Kd3Tc7z_olNVD-27" edge="1">
          <mxGeometry relative="1" as="geometry" />
        </mxCell>
        <mxCell id="B2N0Zq3Kd3Tc7z_olNVD-19" style="edgeStyle=orthogonalEdgeStyle;rounded=0;orthogonalLoop=1;jettySize=auto;html=1;exitX=1;exitY=0.5;exitDx=0;exitDy=0;entryX=0;entryY=0.5;entryDx=0;entryDy=0;dashed=1;" parent="1" source="YQscOVflWYW1QB9K6YFz-41" target="B2N0Zq3Kd3Tc7z_olNVD-8" edge="1">
          <mxGeometry relative="1" as="geometry" />
        </mxCell>
        <mxCell id="YQscOVflWYW1QB9K6YFz-41" value="redis-operator" style="rounded=1;whiteSpace=wrap;html=1;fillColor=#b1ddf0;strokeColor=#10739e;" parent="1" vertex="1">
          <mxGeometry x="828.75" y="338" width="221.5" height="72" as="geometry" />
        </mxCell>
        <mxCell id="B2N0Zq3Kd3Tc7z_olNVD-1" value="redis主从版" style="text;html=1;strokeColor=none;fillColor=none;align=center;verticalAlign=middle;whiteSpace=wrap;rounded=0;" parent="1" vertex="1">
          <mxGeometry x="924.5" y="830" width="76" height="30" as="geometry" />
        </mxCell>
        <mxCell id="B2N0Zq3Kd3Tc7z_olNVD-5" value="&lt;p style=&quot;line-height: 150%;&quot;&gt;1 获取sentinel监控信息&lt;/p&gt;" style="text;html=1;strokeColor=none;fillColor=none;align=center;verticalAlign=middle;whiteSpace=wrap;rounded=0;" parent="1" vertex="1">
          <mxGeometry x="855.5" y="437" width="90" height="30" as="geometry" />
        </mxCell>
        <mxCell id="B2N0Zq3Kd3Tc7z_olNVD-6" value="&lt;p style=&quot;line-height: 150%;&quot;&gt;2 获取redis主从节点信息&lt;/p&gt;" style="text;html=1;strokeColor=none;fillColor=none;align=center;verticalAlign=middle;whiteSpace=wrap;rounded=0;" parent="1" vertex="1">
          <mxGeometry x="596" y="380" width="93" height="30" as="geometry" />
        </mxCell>
        <mxCell id="B2N0Zq3Kd3Tc7z_olNVD-7" value="&lt;p style=&quot;line-height: 150%;&quot;&gt;3 校验sentinel监控信息和redis主从节点信息是否一致&lt;/p&gt;" style="text;html=1;strokeColor=none;fillColor=none;align=center;verticalAlign=middle;whiteSpace=wrap;rounded=0;" parent="1" vertex="1">
          <mxGeometry x="1508" y="359" width="155" height="30" as="geometry" />
        </mxCell>
        <mxCell id="B2N0Zq3Kd3Tc7z_olNVD-8" value="&lt;p style=&quot;line-height: 150%;&quot;&gt;4 检测到sentinel监控信息错误或丢失&lt;/p&gt;" style="text;html=1;strokeColor=none;fillColor=none;align=center;verticalAlign=middle;whiteSpace=wrap;rounded=0;" parent="1" vertex="1">
          <mxGeometry x="1513" y="427" width="122" height="30" as="geometry" />
        </mxCell>
        <mxCell id="B2N0Zq3Kd3Tc7z_olNVD-9" value="&lt;p style=&quot;line-height: 150%;&quot;&gt;5 更新sentinel监控信息&lt;/p&gt;" style="text;html=1;strokeColor=none;fillColor=none;align=center;verticalAlign=middle;whiteSpace=wrap;rounded=0;" parent="1" vertex="1">
          <mxGeometry x="1034" y="437" width="84" height="30" as="geometry" />
        </mxCell>
        <mxCell id="B2N0Zq3Kd3Tc7z_olNVD-10" value="&lt;p style=&quot;line-height: 150%;&quot;&gt;6 sentinel恢复监控&lt;/p&gt;" style="text;html=1;strokeColor=none;fillColor=none;align=center;verticalAlign=middle;whiteSpace=wrap;rounded=0;" parent="1" vertex="1">
          <mxGeometry x="1226" y="777" width="104" height="30" as="geometry" />
        </mxCell>
        <mxCell id="B2N0Zq3Kd3Tc7z_olNVD-11" value="&lt;p style=&quot;line-height: 150%;&quot;&gt;&lt;br&gt;监控信息&lt;br&gt;master: &amp;lt;wrong_addr&amp;gt; or empty&lt;br&gt;slave: &amp;lt;wrong_addr&amp;gt; or empty&lt;/p&gt;" style="text;html=1;strokeColor=none;fillColor=none;align=center;verticalAlign=middle;whiteSpace=wrap;rounded=0;" parent="1" vertex="1">
          <mxGeometry x="604" y="650" width="189" height="30" as="geometry" />
        </mxCell>
        <mxCell id="B2N0Zq3Kd3Tc7z_olNVD-35" style="edgeStyle=orthogonalEdgeStyle;rounded=0;orthogonalLoop=1;jettySize=auto;html=1;exitX=0.5;exitY=1;exitDx=0;exitDy=0;dashed=1;" parent="1" source="B2N0Zq3Kd3Tc7z_olNVD-27" target="YQscOVflWYW1QB9K6YFz-36" edge="1">
          <mxGeometry relative="1" as="geometry">
            <mxPoint x="1205" y="957" as="targetPoint" />
            <Array as="points">
              <mxPoint x="1226" y="694" />
              <mxPoint x="1226" y="965" />
            </Array>
          </mxGeometry>
        </mxCell>
        <mxCell id="B2N0Zq3Kd3Tc7z_olNVD-27" value="" style="rounded=1;whiteSpace=wrap;html=1;" parent="1" vertex="1">
          <mxGeometry x="988" y="526" width="433" height="181" as="geometry" />
        </mxCell>
        <mxCell id="B2N0Zq3Kd3Tc7z_olNVD-28" value="sentinel-0" style="ellipse;whiteSpace=wrap;html=1;aspect=fixed;fillColor=#008a00;fontColor=#ffffff;strokeColor=#005700;" parent="1" vertex="1">
          <mxGeometry x="1021.5" y="570" width="80" height="80" as="geometry" />
        </mxCell>
        <mxCell id="B2N0Zq3Kd3Tc7z_olNVD-29" value="sentinel-2" style="ellipse;whiteSpace=wrap;html=1;aspect=fixed;fillColor=#008a00;fontColor=#ffffff;strokeColor=#005700;" parent="1" vertex="1">
          <mxGeometry x="1303.5" y="570" width="80" height="80" as="geometry" />
        </mxCell>
        <mxCell id="B2N0Zq3Kd3Tc7z_olNVD-30" value="sentinel-1" style="ellipse;whiteSpace=wrap;html=1;aspect=fixed;fillColor=#008a00;fontColor=#ffffff;strokeColor=#005700;" parent="1" vertex="1">
          <mxGeometry x="1158.5" y="570" width="80" height="80" as="geometry" />
        </mxCell>
        <mxCell id="B2N0Zq3Kd3Tc7z_olNVD-31" value="sentinel集群" style="text;html=1;strokeColor=none;fillColor=none;align=center;verticalAlign=middle;whiteSpace=wrap;rounded=0;" parent="1" vertex="1">
          <mxGeometry x="1168" y="533" width="72" height="30" as="geometry" />
        </mxCell>
        <mxCell id="B2N0Zq3Kd3Tc7z_olNVD-33" value="&lt;p style=&quot;line-height: 150%;&quot;&gt;&lt;br&gt;监控信息(更新后)&lt;br&gt;master: 192.168.0.2&lt;br&gt;slave: 192.168.0.3&lt;/p&gt;" style="text;html=1;strokeColor=none;fillColor=none;align=center;verticalAlign=middle;whiteSpace=wrap;rounded=0;" parent="1" vertex="1">
          <mxGeometry x="1147" y="657" width="120.5" height="26" as="geometry" />
        </mxCell>
      </root>
    </mxGraphModel>
  </diagram>
</mxfile>
